<svg id="SvgjsSvg1006" width="829" height="634" xmlns="http://www.w3.org/2000/svg" version="1.1" xmlns:xlink="http://www.w3.org/1999/xlink" xmlns:svgjs="http://svgjs.com/svgjs"><defs id="SvgjsDefs1007"><marker id="SvgjsMarker1022" markerWidth="14" markerHeight="10" refX="10" refY="5" viewBox="0 0 14 10" orient="auto" markerUnits="userSpaceOnUse" stroke-dasharray="0,0"><path id="SvgjsPath1023" d="M0,0 L14,5 L0,10 L0,0" fill="#323232" stroke="#323232" stroke-width="1"></path></marker><marker id="SvgjsMarker1032" markerWidth="14" markerHeight="10" refX="10" refY="5" viewBox="0 0 14 10" orient="auto" markerUnits="userSpaceOnUse" stroke-dasharray="0,0"><path id="SvgjsPath1033" d="M0,0 L14,5 L0,10 L0,0" fill="#323232" stroke="#323232" stroke-width="1"></path></marker><marker id="SvgjsMarker1046" markerWidth="14" markerHeight="10" refX="10" refY="5" viewBox="0 0 14 10" orient="auto" markerUnits="userSpaceOnUse" stroke-dasharray="0,0"><path id="SvgjsPath1047" d="M0,0 L14,5 L0,10 L0,0" fill="#323232" stroke="#323232" stroke-width="1"></path></marker><marker id="SvgjsMarker1078" markerWidth="14" markerHeight="10" refX="10" refY="5" viewBox="0 0 14 10" orient="auto" markerUnits="userSpaceOnUse" stroke-dasharray="0,0"><path id="SvgjsPath1079" d="M0,0 L14,5 L0,10 L0,0" fill="#323232" stroke="#323232" stroke-width="1"></path></marker><marker id="SvgjsMarker1082" markerWidth="14" markerHeight="10" refX="10" refY="5" viewBox="0 0 14 10" orient="auto" markerUnits="userSpaceOnUse" stroke-dasharray="0,0"><path id="SvgjsPath1083" d="M0,0 L14,5 L0,10 L0,0" fill="#323232" stroke="#323232" stroke-width="1"></path></marker><marker id="SvgjsMarker1090" markerWidth="14" markerHeight="10" refX="10" refY="5" viewBox="0 0 14 10" orient="auto" markerUnits="userSpaceOnUse" stroke-dasharray="0,0"><path id="SvgjsPath1091" d="M0,0 L14,5 L0,10 L0,0" fill="#323232" stroke="#323232" stroke-width="1"></path></marker><marker id="SvgjsMarker1122" markerWidth="14" markerHeight="10" refX="10" refY="5" viewBox="0 0 14 10" orient="auto" markerUnits="userSpaceOnUse" stroke-dasharray="0,0"><path id="SvgjsPath1123" d="M0,0 L14,5 L0,10 L0,0" fill="#323232" stroke="#323232" stroke-width="1"></path></marker><marker id="SvgjsMarker1136" markerWidth="14" markerHeight="10" refX="10" refY="5" viewBox="0 0 14 10" orient="auto" markerUnits="userSpaceOnUse" stroke-dasharray="0,0"><path id="SvgjsPath1137" d="M0,0 L14,5 L0,10 L0,0" fill="#323232" stroke="#323232" stroke-width="1"></path></marker><marker id="SvgjsMarker1154" markerWidth="14" markerHeight="10" refX="10" refY="5" viewBox="0 0 14 10" orient="auto" markerUnits="userSpaceOnUse" stroke-dasharray="0,0"><path id="SvgjsPath1155" d="M0,0 L14,5 L0,10 L0,0" fill="#323232" stroke="#323232" stroke-width="1"></path></marker></defs><g id="SvgjsG1008" transform="translate(55,55)"><path id="SvgjsPath1009" d="M 0 4Q 0 0 4 0L 96 0Q 100 0 100 4L 100 66Q 100 70 96 70L 4 70Q 0 70 0 66Z" stroke="rgba(50,50,50,1)" stroke-width="2" fill-opacity="1" fill="#ffffff"></path><g id="SvgjsG1010"><text id="SvgjsText1011" font-family="微软雅黑" text-anchor="middle" font-size="13px" width="80px" fill="#323232" font-weight="400" align="middle" lineHeight="125%" anchor="middle" family="微软雅黑" size="13px" weight="400" font-style="" opacity="1" y="25.375" transform="rotate(0)"><tspan id="SvgjsTspan1012" dy="16" x="50"><tspan id="SvgjsTspan1013" style="text-decoration:;">lightdm</tspan></tspan></text></g></g><g id="SvgjsG1014" transform="translate(55,202)"><path id="SvgjsPath1015" d="M 0 4Q 0 0 4 0L 96 0Q 100 0 100 4L 100 66Q 100 70 96 70L 4 70Q 0 70 0 66Z" stroke="rgba(50,50,50,1)" stroke-width="2" fill-opacity="1" fill="#ffffff"></path><g id="SvgjsG1016"><text id="SvgjsText1017" font-family="微软雅黑" text-anchor="middle" font-size="13px" width="80px" fill="#323232" font-weight="400" align="middle" lineHeight="125%" anchor="middle" family="微软雅黑" size="13px" weight="400" font-style="" opacity="1" y="25.375" transform="rotate(0)"><tspan id="SvgjsTspan1018" dy="16" x="50"><tspan id="SvgjsTspan1019" style="text-decoration:;">systemd</tspan></tspan></text></g></g><g id="SvgjsG1020"><path id="SvgjsPath1021" d="M156 90L226 90L226 90L293.4 90" stroke="#323232" stroke-width="2" fill="none" marker-end="url(#SvgjsMarker1022)"></path></g><g id="SvgjsG1024" transform="translate(297,55)"><path id="SvgjsPath1025" d="M 0 4Q 0 0 4 0L 96 0Q 100 0 100 4L 100 66Q 100 70 96 70L 4 70Q 0 70 0 66Z" stroke="rgba(50,50,50,1)" stroke-width="2" fill-opacity="1" fill="#ffffff"></path><g id="SvgjsG1026"><text id="SvgjsText1027" font-family="微软雅黑" text-anchor="middle" font-size="13px" width="80px" fill="#323232" font-weight="400" align="middle" lineHeight="125%" anchor="middle" family="微软雅黑" size="13px" weight="400" font-style="" opacity="1" y="25.375" transform="rotate(0)"><tspan id="SvgjsTspan1028" dy="16" x="50"><tspan id="SvgjsTspan1029" style="text-decoration:;">startdde</tspan></tspan></text></g></g><g id="SvgjsG1030"><path id="SvgjsPath1031" d="M347 126L347 163.5L105 163.5L105 198.4" stroke="#323232" stroke-width="2" fill="none" marker-end="url(#SvgjsMarker1032)"></path><rect id="SvgjsRect1034" width="140" height="16" x="157.3" y="155.5" fill="#ffffff"></rect><text id="SvgjsText1035" font-family="微软雅黑" text-anchor="middle" font-size="13px" width="140px" fill="#323232" font-weight="400" align="top" lineHeight="16px" anchor="middle" family="微软雅黑" size="13px" weight="400" font-style="" opacity="1" y="153.875" transform="rotate(0)"><tspan id="SvgjsTspan1036" dy="16" x="227.3"><tspan id="SvgjsTspan1037" style="text-decoration:;">dde-session-x11.target</tspan></tspan></text></g><g id="SvgjsG1038" transform="translate(449,167)"><path id="SvgjsPath1039" d="M 18 0Q 9 0 9 9L 9 61Q 9 70 0 70Q 9 70 9 79L 9 131Q 9 140 18 140" stroke="rgba(50,50,50,1)" stroke-width="2" fill="none"></path><path id="SvgjsPath1040" d="M 182 140Q 191 140 191 131L 191 79Q 191 70 200 70Q 191 70 191 61L 191 9Q 191 0 182 0" stroke="rgba(50,50,50,1)" stroke-width="2" fill="none"></path><path id="SvgjsPath1041" d="M 0 0L 200 0L 200 140L 0 140Z" stroke="none" fill="none"></path><g id="SvgjsG1042"><text id="SvgjsText1043" font-family="微软雅黑" text-anchor="middle" font-size="13px" width="180px" fill="#323232" font-weight="400" align="middle" lineHeight="125%" anchor="middle" family="微软雅黑" size="13px" weight="400" font-style="" opacity="1" y="60.375" transform="rotate(0)"></text></g></g><g id="SvgjsG1044"><path id="SvgjsPath1045" d="M156 237L302 237L302 237L445.4 237" stroke="#323232" stroke-width="2" fill="none" marker-end="url(#SvgjsMarker1046)"></path><rect id="SvgjsRect1048" width="107" height="16" x="247.2" y="229" fill="#ffffff"></rect><text id="SvgjsText1049" font-family="微软雅黑" text-anchor="middle" font-size="13px" width="107px" fill="#323232" font-weight="400" align="top" lineHeight="16px" anchor="middle" family="微软雅黑" size="13px" weight="400" font-style="" opacity="1" y="227.375" transform="rotate(0)"><tspan id="SvgjsTspan1050" dy="16" x="300.7"><tspan id="SvgjsTspan1051" style="text-decoration:;">services / targets</tspan></tspan></text></g><g id="SvgjsG1052" transform="translate(485,168)"><path id="SvgjsPath1053" d="M 0 0L 120 0L 120 40L 0 40Z" stroke="none" fill="none"></path><g id="SvgjsG1054"><text id="SvgjsText1055" font-family="微软雅黑" text-anchor="middle" font-size="13px" width="120px" fill="#323232" font-weight="400" align="middle" lineHeight="125%" anchor="middle" family="微软雅黑" size="13px" weight="400" font-style="" opacity="1" y="10.375" transform="rotate(0)"><tspan id="SvgjsTspan1056" dy="16" x="60"><tspan id="SvgjsTspan1057" style="text-decoration:;">startdde</tspan></tspan></text></g></g><g id="SvgjsG1058" transform="translate(485,202)"><path id="SvgjsPath1059" d="M 0 0L 120 0L 120 40L 0 40Z" stroke="none" fill="none"></path><g id="SvgjsG1060"><text id="SvgjsText1061" font-family="微软雅黑" text-anchor="middle" font-size="13px" width="120px" fill="#323232" font-weight="400" align="middle" lineHeight="125%" anchor="middle" family="微软雅黑" size="13px" weight="400" font-style="" opacity="1" y="10.375" transform="rotate(0)"><tspan id="SvgjsTspan1062" dy="16" x="60"><tspan id="SvgjsTspan1063" style="text-decoration:;">dde-components</tspan></tspan></text></g></g><g id="SvgjsG1064" transform="translate(485,232)"><path id="SvgjsPath1065" d="M 0 0L 120 0L 120 40L 0 40Z" stroke="none" fill="none"></path><g id="SvgjsG1066"><text id="SvgjsText1067" font-family="微软雅黑" text-anchor="middle" font-size="13px" width="120px" fill="#323232" font-weight="400" align="middle" lineHeight="125%" anchor="middle" family="微软雅黑" size="13px" weight="400" font-style="" opacity="1" y="10.375" transform="rotate(0)"><tspan id="SvgjsTspan1068" dy="16" x="60"><tspan id="SvgjsTspan1069" style="text-decoration:;">launch-service</tspan></tspan></text></g></g><g id="SvgjsG1070" transform="translate(197,335)"><path id="SvgjsPath1071" d="M 0 4Q 0 0 4 0L 96 0Q 100 0 100 4L 100 66Q 100 70 96 70L 4 70Q 0 70 0 66Z" stroke="rgba(50,50,50,1)" stroke-width="2" fill-opacity="1" fill="#ffffff"></path><g id="SvgjsG1072"><text id="SvgjsText1073" font-family="微软雅黑" text-anchor="middle" font-size="13px" width="80px" fill="#323232" font-weight="400" align="middle" lineHeight="125%" anchor="middle" family="微软雅黑" size="13px" weight="400" font-style="" opacity="1" y="25.375" transform="rotate(0)"><tspan id="SvgjsTspan1074" dy="16" x="50"><tspan id="SvgjsTspan1075" style="text-decoration:;">dbus.service</tspan></tspan></text></g></g><g id="SvgjsG1076"><path id="SvgjsPath1077" d="M105 273L105 370L193.39999999999998 370" stroke="#323232" stroke-width="2" fill="none" marker-end="url(#SvgjsMarker1078)"></path></g><g id="SvgjsG1080"><path id="SvgjsPath1081" d="M545 167L545 90L400.6 90" stroke="#323232" stroke-width="2" fill="none" marker-end="url(#SvgjsMarker1082)"></path><rect id="SvgjsRect1084" width="52" height="16" x="485.3" y="82" fill="#ffffff"></rect><text id="SvgjsText1085" font-family="微软雅黑" text-anchor="middle" font-size="13px" width="52px" fill="#323232" font-weight="400" align="top" lineHeight="16px" anchor="middle" family="微软雅黑" size="13px" weight="400" font-style="" opacity="1" y="80.375" transform="rotate(0)"><tspan id="SvgjsTspan1086" dy="16" x="511.3"><tspan id="SvgjsTspan1087" style="text-decoration:;">监听存活</tspan></tspan></text></g><g id="SvgjsG1088"><path id="SvgjsPath1089" d="M298 370L371 370L371 472L441.4 472" stroke="#323232" stroke-width="2" fill="none" marker-end="url(#SvgjsMarker1090)"></path><rect id="SvgjsRect1092" width="82" height="16" x="330" y="411.7" fill="#ffffff"></rect><text id="SvgjsText1093" font-family="微软雅黑" text-anchor="middle" font-size="13px" width="82px" fill="#323232" font-weight="400" align="top" lineHeight="16px" anchor="middle" family="微软雅黑" size="13px" weight="400" font-style="" opacity="1" y="410.075" transform="rotate(0)"><tspan id="SvgjsTspan1094" dy="16" x="371"><tspan id="SvgjsTspan1095" style="text-decoration:;">dbus services</tspan></tspan></text></g><g id="SvgjsG1096" transform="translate(445,402)"><path id="SvgjsPath1097" d="M 18 0Q 9 0 9 9L 9 61Q 9 70 0 70Q 9 70 9 79L 9 131Q 9 140 18 140" stroke="rgba(50,50,50,1)" stroke-width="2" fill="none"></path><path id="SvgjsPath1098" d="M 182 140Q 191 140 191 131L 191 79Q 191 70 200 70Q 191 70 191 61L 191 9Q 191 0 182 0" stroke="rgba(50,50,50,1)" stroke-width="2" fill="none"></path><path id="SvgjsPath1099" d="M 0 0L 200 0L 200 140L 0 140Z" stroke="none" fill="none"></path><g id="SvgjsG1100"><text id="SvgjsText1101" font-family="微软雅黑" text-anchor="middle" font-size="13px" width="180px" fill="#323232" font-weight="400" align="middle" lineHeight="125%" anchor="middle" family="微软雅黑" size="13px" weight="400" font-style="" opacity="1" y="60.375" transform="rotate(0)"></text></g></g><g id="SvgjsG1102" transform="translate(485,450)"><path id="SvgjsPath1103" d="M 0 0L 120 0L 120 40L 0 40Z" stroke="none" fill="none"></path><g id="SvgjsG1104"><text id="SvgjsText1105" font-family="微软雅黑" text-anchor="middle" font-size="13px" width="120px" fill="#323232" font-weight="400" align="middle" lineHeight="125%" anchor="middle" family="微软雅黑" size="13px" weight="400" font-style="" opacity="1" y="10.375" transform="rotate(0)"><tspan id="SvgjsTspan1106" dy="16" x="60"><tspan id="SvgjsTspan1107" style="text-decoration:;">org.gnome.gedit</tspan></tspan></text></g></g><g id="SvgjsG1108" transform="translate(477,405)"><path id="SvgjsPath1109" d="M 0 0L 144 0L 144 31L 0 31Z" stroke="none" fill="none"></path><g id="SvgjsG1110"><text id="SvgjsText1111" font-family="微软雅黑" text-anchor="middle" font-size="13px" width="144px" fill="#323232" font-weight="400" align="middle" lineHeight="125%" anchor="middle" family="微软雅黑" size="13px" weight="400" font-style="" opacity="1" y="5.875" transform="rotate(0)"><tspan id="SvgjsTspan1112" dy="16" x="72"><tspan id="SvgjsTspan1113" style="text-decoration:;">dde-network-service</tspan></tspan></text></g></g><g id="SvgjsG1114" transform="translate(473.5,267)"><path id="SvgjsPath1115" d="M 0 0L 143 0L 143 35L 0 35Z" stroke="none" fill="none"></path><g id="SvgjsG1116"><text id="SvgjsText1117" font-family="微软雅黑" text-anchor="middle" font-size="13px" width="143px" fill="#323232" font-weight="400" align="middle" lineHeight="125%" anchor="middle" family="微软雅黑" size="13px" weight="400" font-style="" opacity="1" y="7.875" transform="rotate(0)"><tspan id="SvgjsTspan1118" dy="16" x="71.5"><tspan id="SvgjsTspan1119" style="text-decoration:;">dde-network-service</tspan></tspan></text></g></g><g id="SvgjsG1120"><path id="SvgjsPath1121" d="M617.5 284.5L651 284.5L651 420.5L624.6 420.5" stroke="#323232" stroke-width="2" fill="none" marker-end="url(#SvgjsMarker1122)"></path><rect id="SvgjsRect1124" width="140" height="16" x="581" y="340.94999999999993" fill="#ffffff"></rect><text id="SvgjsText1125" font-family="微软雅黑" text-anchor="middle" font-size="13px" width="140px" fill="#323232" font-weight="400" align="top" lineHeight="16px" anchor="middle" family="微软雅黑" size="13px" weight="400" font-style="" opacity="1" y="339.32499999999993" transform="rotate(0)"><tspan id="SvgjsTspan1126" dy="16" x="651"><tspan id="SvgjsTspan1127" style="text-decoration:;">systemd dbus 自动关联</tspan></tspan></text></g><g id="SvgjsG1128" transform="translate(485,504)"><path id="SvgjsPath1129" d="M 0 0L 120 0L 120 40L 0 40Z" stroke="none" fill="none"></path><g id="SvgjsG1130"><text id="SvgjsText1131" font-family="微软雅黑" text-anchor="middle" font-size="13px" width="120px" fill="#323232" font-weight="400" align="middle" lineHeight="125%" anchor="middle" family="微软雅黑" size="13px" weight="400" font-style="" opacity="1" y="10.375" transform="rotate(0)"><tspan id="SvgjsTspan1132" dy="16" x="60"><tspan id="SvgjsTspan1133" style="text-decoration:;">......</tspan></tspan></text></g></g><g id="SvgjsG1134"><path id="SvgjsPath1135" d="M606 188L804 188L804 591L25 591L25 237L51.400000000000006 237" stroke="#323232" stroke-width="2" fill="none" marker-end="url(#SvgjsMarker1136)"></path></g><g id="SvgjsG1138" transform="translate(659,150)"><path id="SvgjsPath1139" d="M 0 0L 120 0L 120 40L 0 40Z" stroke="none" fill="none"></path><g id="SvgjsG1140"><text id="SvgjsText1141" font-family="微软雅黑" text-anchor="middle" font-size="13px" width="120px" fill="#323232" font-weight="400" align="middle" lineHeight="125%" anchor="middle" family="微软雅黑" size="13px" weight="400" font-style="" opacity="1" y="10.375" transform="rotate(0)"><tspan id="SvgjsTspan1142" dy="16" x="60"><tspan id="SvgjsTspan1143" style="text-decoration:;">检测到会话已退出</tspan></tspan></text></g></g><g id="SvgjsG1144" transform="translate(100,569)"><path id="SvgjsPath1145" d="M 0 0L 120 0L 120 40L 0 40Z" stroke="none" fill="none"></path><g id="SvgjsG1146"><text id="SvgjsText1147" font-family="微软雅黑" text-anchor="middle" font-size="13px" width="120px" fill="#323232" font-weight="400" align="middle" lineHeight="125%" anchor="middle" family="微软雅黑" size="13px" weight="400" font-style="" opacity="1" y="2.375" transform="rotate(0)"><tspan id="SvgjsTspan1148" dy="16" x="60"><tspan id="SvgjsTspan1149" style="text-decoration:;">StopUnit </tspan></tspan><tspan id="SvgjsTspan1150" dy="16" x="60"><tspan id="SvgjsTspan1151" style="text-decoration:;">dbus.service</tspan></tspan></text></g></g><g id="SvgjsG1152"><path id="SvgjsPath1153" d="M606 188L635 188L635 25L105 25L105 51.400000000000006" stroke="#323232" stroke-width="2" fill="none" marker-end="url(#SvgjsMarker1154)"></path><rect id="SvgjsRect1156" width="52" height="16" x="426.8" y="17" fill="#ffffff"></rect><text id="SvgjsText1157" font-family="微软雅黑" text-anchor="middle" font-size="13px" width="52px" fill="#323232" font-weight="400" align="top" lineHeight="16px" anchor="middle" family="微软雅黑" size="13px" weight="400" font-style="" opacity="1" y="15.375" transform="rotate(0)"><tspan id="SvgjsTspan1158" dy="16" x="452.8"><tspan id="SvgjsTspan1159" style="text-decoration:;">注销会话</tspan></tspan></text></g></svg>